# xmcd CD database file generated by Grip 3.2.0
# 
# Track frame offsets:
#       182
#       26640
#       47037
#       71637
#       96295
#       121135
#       148145
# 
# Disc length: 2305 seconds
# 
# Revision: 4
# Processed by: cddbd v1.5.2PL0 Copyright (c) Steve Scherf et al.
# Submitted via: Grip 3.2.0
# 
DISCID=6208ff07
DTITLE=Grover Washington, Jr. - Inside Moves
DYEAR=1984
DGENRE=Jazz
TTITLE0=Inside Moves
TTITLE1=Dawn Song
TTITLE2=Watching You Watching Me
TTITLE3=Secret Sounds
TTITLE4=Jet Stream
TTITLE5=When I Look At You
TTITLE6=Sassy Stew
EXTD=YEAR: 1984
EXTT0=
EXTT1=
EXTT2=
EXTT3=
EXTT4=
EXTT5=
EXTT6=
PLAYORDER=
